<mxfile host="app.diagrams.net" agent="Mozilla/5.0 (X11; Linux x86_64; rv:134.0) Gecko/20100101 Firefox/134.0" version="24.7.16">
  <diagram name="Page-1" id="_wfic93xbc3yK8G7gonS">
    <mxGraphModel dx="2145" dy="1740" grid="1" gridSize="10" guides="1" tooltips="1" connect="1" arrows="1" fold="1" page="1" pageScale="1" pageWidth="827" pageHeight="1169" math="0" shadow="0">
      <root>
        <mxCell id="0" />
        <mxCell id="1" parent="0" />
        <mxCell id="k0r3qJsODM4JVLYgHPTu-1" value="captains" style="rhombus;whiteSpace=wrap;html=1;" vertex="1" parent="1">
          <mxGeometry x="414" y="140" width="160" height="60" as="geometry" />
        </mxCell>
        <mxCell id="k0r3qJsODM4JVLYgHPTu-2" value="pilot" style="rounded=0;whiteSpace=wrap;html=1;" vertex="1" parent="1">
          <mxGeometry x="600" y="140" width="120" height="60" as="geometry" />
        </mxCell>
        <mxCell id="k0r3qJsODM4JVLYgHPTu-6" value="destination/origin" style="rounded=0;whiteSpace=wrap;html=1;" vertex="1" parent="1">
          <mxGeometry x="-80" y="130" width="120" height="60" as="geometry" />
        </mxCell>
        <mxCell id="k0r3qJsODM4JVLYgHPTu-8" value="has" style="rhombus;whiteSpace=wrap;html=1;" vertex="1" parent="1">
          <mxGeometry x="80" y="130" width="150" height="50" as="geometry" />
        </mxCell>
        <mxCell id="k0r3qJsODM4JVLYgHPTu-9" value="flight" style="rounded=0;whiteSpace=wrap;html=1;" vertex="1" parent="1">
          <mxGeometry x="270" y="140" width="120" height="60" as="geometry" />
        </mxCell>
        <mxCell id="k0r3qJsODM4JVLYgHPTu-10" value="" style="endArrow=none;html=1;rounded=0;entryX=0;entryY=0.5;entryDx=0;entryDy=0;exitX=1;exitY=0.5;exitDx=0;exitDy=0;" edge="1" parent="1" source="k0r3qJsODM4JVLYgHPTu-8" target="k0r3qJsODM4JVLYgHPTu-9">
          <mxGeometry width="50" height="50" relative="1" as="geometry">
            <mxPoint x="250" y="300" as="sourcePoint" />
            <mxPoint x="300" y="250" as="targetPoint" />
          </mxGeometry>
        </mxCell>
        <mxCell id="k0r3qJsODM4JVLYgHPTu-12" value="" style="endArrow=none;html=1;rounded=0;entryX=0;entryY=0.5;entryDx=0;entryDy=0;" edge="1" parent="1" source="k0r3qJsODM4JVLYgHPTu-9" target="k0r3qJsODM4JVLYgHPTu-1">
          <mxGeometry width="50" height="50" relative="1" as="geometry">
            <mxPoint x="330" y="370" as="sourcePoint" />
            <mxPoint x="380" y="320" as="targetPoint" />
          </mxGeometry>
        </mxCell>
        <mxCell id="k0r3qJsODM4JVLYgHPTu-13" value="forename" style="ellipse;whiteSpace=wrap;html=1;" vertex="1" parent="1">
          <mxGeometry x="810" y="90" width="120" height="40" as="geometry" />
        </mxCell>
        <mxCell id="k0r3qJsODM4JVLYgHPTu-14" value="surname" style="ellipse;whiteSpace=wrap;html=1;" vertex="1" parent="1">
          <mxGeometry x="810" y="30" width="120" height="40" as="geometry" />
        </mxCell>
        <mxCell id="k0r3qJsODM4JVLYgHPTu-15" value="&lt;u&gt;pilot_ID&lt;/u&gt;" style="ellipse;whiteSpace=wrap;html=1;" vertex="1" parent="1">
          <mxGeometry x="810" y="150" width="120" height="40" as="geometry" />
        </mxCell>
        <mxCell id="k0r3qJsODM4JVLYgHPTu-16" value="date of birth" style="ellipse;whiteSpace=wrap;html=1;" vertex="1" parent="1">
          <mxGeometry x="810" y="210" width="120" height="40" as="geometry" />
        </mxCell>
        <mxCell id="k0r3qJsODM4JVLYgHPTu-17" value="sex" style="ellipse;whiteSpace=wrap;html=1;" vertex="1" parent="1">
          <mxGeometry x="810" y="270" width="120" height="40" as="geometry" />
        </mxCell>
        <mxCell id="k0r3qJsODM4JVLYgHPTu-18" value="" style="endArrow=none;html=1;rounded=0;entryX=0;entryY=0.5;entryDx=0;entryDy=0;exitX=1;exitY=0.5;exitDx=0;exitDy=0;" edge="1" parent="1" source="k0r3qJsODM4JVLYgHPTu-2" target="k0r3qJsODM4JVLYgHPTu-14">
          <mxGeometry width="50" height="50" relative="1" as="geometry">
            <mxPoint x="760" y="140" as="sourcePoint" />
            <mxPoint x="570" y="370" as="targetPoint" />
          </mxGeometry>
        </mxCell>
        <mxCell id="k0r3qJsODM4JVLYgHPTu-19" value="" style="endArrow=none;html=1;rounded=0;entryX=0;entryY=0.5;entryDx=0;entryDy=0;exitX=1;exitY=0.5;exitDx=0;exitDy=0;" edge="1" parent="1" source="k0r3qJsODM4JVLYgHPTu-2" target="k0r3qJsODM4JVLYgHPTu-13">
          <mxGeometry width="50" height="50" relative="1" as="geometry">
            <mxPoint x="690" y="310" as="sourcePoint" />
            <mxPoint x="740" y="260" as="targetPoint" />
          </mxGeometry>
        </mxCell>
        <mxCell id="k0r3qJsODM4JVLYgHPTu-20" value="" style="endArrow=none;html=1;rounded=0;entryX=0;entryY=0.5;entryDx=0;entryDy=0;exitX=1;exitY=0.5;exitDx=0;exitDy=0;" edge="1" parent="1" source="k0r3qJsODM4JVLYgHPTu-2" target="k0r3qJsODM4JVLYgHPTu-15">
          <mxGeometry width="50" height="50" relative="1" as="geometry">
            <mxPoint x="650" y="330" as="sourcePoint" />
            <mxPoint x="700" y="280" as="targetPoint" />
          </mxGeometry>
        </mxCell>
        <mxCell id="k0r3qJsODM4JVLYgHPTu-21" value="" style="endArrow=none;html=1;rounded=0;entryX=0;entryY=0.5;entryDx=0;entryDy=0;exitX=1;exitY=0.5;exitDx=0;exitDy=0;" edge="1" parent="1" source="k0r3qJsODM4JVLYgHPTu-2" target="k0r3qJsODM4JVLYgHPTu-16">
          <mxGeometry width="50" height="50" relative="1" as="geometry">
            <mxPoint x="640" y="320" as="sourcePoint" />
            <mxPoint x="690" y="270" as="targetPoint" />
          </mxGeometry>
        </mxCell>
        <mxCell id="k0r3qJsODM4JVLYgHPTu-22" value="" style="endArrow=none;html=1;rounded=0;entryX=0;entryY=0.5;entryDx=0;entryDy=0;exitX=1;exitY=0.5;exitDx=0;exitDy=0;" edge="1" parent="1" source="k0r3qJsODM4JVLYgHPTu-2" target="k0r3qJsODM4JVLYgHPTu-17">
          <mxGeometry width="50" height="50" relative="1" as="geometry">
            <mxPoint x="720" y="310" as="sourcePoint" />
            <mxPoint x="770" y="260" as="targetPoint" />
          </mxGeometry>
        </mxCell>
        <mxCell id="k0r3qJsODM4JVLYgHPTu-23" value="" style="endArrow=none;html=1;rounded=0;entryX=0.5;entryY=1;entryDx=0;entryDy=0;exitX=0.5;exitY=0;exitDx=0;exitDy=0;" edge="1" parent="1" source="k0r3qJsODM4JVLYgHPTu-24" target="k0r3qJsODM4JVLYgHPTu-9">
          <mxGeometry width="50" height="50" relative="1" as="geometry">
            <mxPoint x="270" y="280" as="sourcePoint" />
            <mxPoint x="450" y="320" as="targetPoint" />
          </mxGeometry>
        </mxCell>
        <mxCell id="k0r3qJsODM4JVLYgHPTu-24" value="status" style="ellipse;whiteSpace=wrap;html=1;" vertex="1" parent="1">
          <mxGeometry x="60" y="290" width="120" height="40" as="geometry" />
        </mxCell>
        <mxCell id="k0r3qJsODM4JVLYgHPTu-26" value="&lt;u&gt;flight_ID&lt;/u&gt;" style="ellipse;whiteSpace=wrap;html=1;" vertex="1" parent="1">
          <mxGeometry x="140" y="350" width="120" height="40" as="geometry" />
        </mxCell>
        <mxCell id="k0r3qJsODM4JVLYgHPTu-29" value="" style="endArrow=none;html=1;rounded=0;entryX=0.5;entryY=1;entryDx=0;entryDy=0;exitX=0.5;exitY=0;exitDx=0;exitDy=0;" edge="1" parent="1" source="k0r3qJsODM4JVLYgHPTu-26" target="k0r3qJsODM4JVLYgHPTu-9">
          <mxGeometry width="50" height="50" relative="1" as="geometry">
            <mxPoint x="410" y="300" as="sourcePoint" />
            <mxPoint x="460" y="250" as="targetPoint" />
          </mxGeometry>
        </mxCell>
        <mxCell id="k0r3qJsODM4JVLYgHPTu-30" value="&lt;u&gt;location_code&lt;/u&gt;" style="ellipse;whiteSpace=wrap;html=1;" vertex="1" parent="1">
          <mxGeometry x="-80" y="280" width="120" height="40" as="geometry" />
        </mxCell>
        <mxCell id="k0r3qJsODM4JVLYgHPTu-31" value="" style="endArrow=none;html=1;rounded=0;exitX=0.5;exitY=0;exitDx=0;exitDy=0;" edge="1" parent="1" source="k0r3qJsODM4JVLYgHPTu-30" target="k0r3qJsODM4JVLYgHPTu-6">
          <mxGeometry width="50" height="50" relative="1" as="geometry">
            <mxPoint x="50" y="370" as="sourcePoint" />
            <mxPoint x="100" y="320" as="targetPoint" />
          </mxGeometry>
        </mxCell>
        <mxCell id="k0r3qJsODM4JVLYgHPTu-33" value="longitude" style="ellipse;whiteSpace=wrap;html=1;" vertex="1" parent="1">
          <mxGeometry x="-230" y="160" width="120" height="40" as="geometry" />
        </mxCell>
        <mxCell id="k0r3qJsODM4JVLYgHPTu-34" value="latitude" style="ellipse;whiteSpace=wrap;html=1;" vertex="1" parent="1">
          <mxGeometry x="-230" y="100" width="120" height="40" as="geometry" />
        </mxCell>
        <mxCell id="k0r3qJsODM4JVLYgHPTu-35" value="" style="endArrow=none;html=1;rounded=0;entryX=0;entryY=0.5;entryDx=0;entryDy=0;exitX=1;exitY=0.5;exitDx=0;exitDy=0;" edge="1" parent="1" source="k0r3qJsODM4JVLYgHPTu-33" target="k0r3qJsODM4JVLYgHPTu-6">
          <mxGeometry width="50" height="50" relative="1" as="geometry">
            <mxPoint x="-200" y="240" as="sourcePoint" />
            <mxPoint x="-150" y="190" as="targetPoint" />
          </mxGeometry>
        </mxCell>
        <mxCell id="k0r3qJsODM4JVLYgHPTu-36" value="" style="endArrow=none;html=1;rounded=0;entryX=0;entryY=0.5;entryDx=0;entryDy=0;exitX=1;exitY=0.5;exitDx=0;exitDy=0;" edge="1" parent="1" source="k0r3qJsODM4JVLYgHPTu-34" target="k0r3qJsODM4JVLYgHPTu-6">
          <mxGeometry width="50" height="50" relative="1" as="geometry">
            <mxPoint x="-30" y="10" as="sourcePoint" />
            <mxPoint x="20" y="-40" as="targetPoint" />
          </mxGeometry>
        </mxCell>
        <mxCell id="k0r3qJsODM4JVLYgHPTu-37" value="is with" style="rhombus;whiteSpace=wrap;html=1;" vertex="1" parent="1">
          <mxGeometry x="250" y="70" width="160" height="50" as="geometry" />
        </mxCell>
        <mxCell id="k0r3qJsODM4JVLYgHPTu-39" value="plane" style="rounded=0;whiteSpace=wrap;html=1;" vertex="1" parent="1">
          <mxGeometry x="270" y="-10" width="120" height="60" as="geometry" />
        </mxCell>
        <mxCell id="k0r3qJsODM4JVLYgHPTu-40" value="" style="endArrow=none;html=1;rounded=0;entryX=0.5;entryY=1;entryDx=0;entryDy=0;exitX=0.5;exitY=0;exitDx=0;exitDy=0;" edge="1" parent="1" source="k0r3qJsODM4JVLYgHPTu-9" target="k0r3qJsODM4JVLYgHPTu-37">
          <mxGeometry width="50" height="50" relative="1" as="geometry">
            <mxPoint x="100" y="50" as="sourcePoint" />
            <mxPoint x="150" as="targetPoint" />
          </mxGeometry>
        </mxCell>
        <mxCell id="k0r3qJsODM4JVLYgHPTu-42" value="model" style="ellipse;whiteSpace=wrap;html=1;" vertex="1" parent="1">
          <mxGeometry x="270" y="-100" width="120" height="40" as="geometry" />
        </mxCell>
        <mxCell id="k0r3qJsODM4JVLYgHPTu-43" value="&lt;u&gt;plane_ID&lt;/u&gt;" style="ellipse;whiteSpace=wrap;html=1;" vertex="1" parent="1">
          <mxGeometry x="140" y="-100" width="120" height="40" as="geometry" />
        </mxCell>
        <mxCell id="k0r3qJsODM4JVLYgHPTu-44" value="commission_date" style="ellipse;whiteSpace=wrap;html=1;" vertex="1" parent="1">
          <mxGeometry x="400" y="-100" width="120" height="40" as="geometry" />
        </mxCell>
        <mxCell id="k0r3qJsODM4JVLYgHPTu-45" value="" style="endArrow=none;html=1;rounded=0;entryX=0.5;entryY=0;entryDx=0;entryDy=0;exitX=0.5;exitY=1;exitDx=0;exitDy=0;" edge="1" parent="1" source="k0r3qJsODM4JVLYgHPTu-43" target="k0r3qJsODM4JVLYgHPTu-39">
          <mxGeometry width="50" height="50" relative="1" as="geometry">
            <mxPoint x="16" y="-10" as="sourcePoint" />
            <mxPoint x="66" y="-60" as="targetPoint" />
          </mxGeometry>
        </mxCell>
        <mxCell id="k0r3qJsODM4JVLYgHPTu-46" value="" style="endArrow=none;html=1;rounded=0;entryX=0.5;entryY=0;entryDx=0;entryDy=0;exitX=0.5;exitY=1;exitDx=0;exitDy=0;" edge="1" parent="1" source="k0r3qJsODM4JVLYgHPTu-42" target="k0r3qJsODM4JVLYgHPTu-39">
          <mxGeometry width="50" height="50" relative="1" as="geometry">
            <mxPoint x="106" y="90" as="sourcePoint" />
            <mxPoint x="156" y="40" as="targetPoint" />
          </mxGeometry>
        </mxCell>
        <mxCell id="k0r3qJsODM4JVLYgHPTu-47" value="" style="endArrow=none;html=1;rounded=0;entryX=0.5;entryY=0;entryDx=0;entryDy=0;exitX=0.5;exitY=1;exitDx=0;exitDy=0;" edge="1" parent="1" source="k0r3qJsODM4JVLYgHPTu-44" target="k0r3qJsODM4JVLYgHPTu-39">
          <mxGeometry width="50" height="50" relative="1" as="geometry">
            <mxPoint x="146" y="70" as="sourcePoint" />
            <mxPoint x="196" y="20" as="targetPoint" />
          </mxGeometry>
        </mxCell>
        <mxCell id="k0r3qJsODM4JVLYgHPTu-49" value="" style="endArrow=none;html=1;rounded=0;entryX=0;entryY=0.5;entryDx=0;entryDy=0;exitX=1;exitY=0.5;exitDx=0;exitDy=0;" edge="1" parent="1" source="k0r3qJsODM4JVLYgHPTu-6" target="k0r3qJsODM4JVLYgHPTu-8">
          <mxGeometry width="50" height="50" relative="1" as="geometry">
            <mxPoint x="10" y="70" as="sourcePoint" />
            <mxPoint x="70" y="115" as="targetPoint" />
          </mxGeometry>
        </mxCell>
        <mxCell id="k0r3qJsODM4JVLYgHPTu-50" value="departuretime" style="ellipse;whiteSpace=wrap;html=1;" vertex="1" parent="1">
          <mxGeometry x="270" y="350" width="120" height="40" as="geometry" />
        </mxCell>
        <mxCell id="k0r3qJsODM4JVLYgHPTu-51" value="departuredate" style="ellipse;whiteSpace=wrap;html=1;" vertex="1" parent="1">
          <mxGeometry x="334" y="290" width="120" height="40" as="geometry" />
        </mxCell>
        <mxCell id="k0r3qJsODM4JVLYgHPTu-52" value="" style="endArrow=none;html=1;rounded=0;entryX=0.5;entryY=0;entryDx=0;entryDy=0;exitX=0.5;exitY=1;exitDx=0;exitDy=0;" edge="1" parent="1" source="k0r3qJsODM4JVLYgHPTu-9" target="k0r3qJsODM4JVLYgHPTu-50">
          <mxGeometry width="50" height="50" relative="1" as="geometry">
            <mxPoint y="100" as="sourcePoint" />
            <mxPoint x="50" y="50" as="targetPoint" />
          </mxGeometry>
        </mxCell>
        <mxCell id="k0r3qJsODM4JVLYgHPTu-53" value="" style="endArrow=none;html=1;rounded=0;entryX=0.5;entryY=0;entryDx=0;entryDy=0;exitX=0.5;exitY=1;exitDx=0;exitDy=0;" edge="1" parent="1" source="k0r3qJsODM4JVLYgHPTu-9" target="k0r3qJsODM4JVLYgHPTu-51">
          <mxGeometry width="50" height="50" relative="1" as="geometry">
            <mxPoint x="380" y="220" as="sourcePoint" />
            <mxPoint y="60" as="targetPoint" />
          </mxGeometry>
        </mxCell>
        <mxCell id="k0r3qJsODM4JVLYgHPTu-55" value="name" style="ellipse;whiteSpace=wrap;html=1;" vertex="1" parent="1">
          <mxGeometry x="-240" y="220" width="120" height="40" as="geometry" />
        </mxCell>
        <mxCell id="k0r3qJsODM4JVLYgHPTu-56" value="country" style="ellipse;whiteSpace=wrap;html=1;" vertex="1" parent="1">
          <mxGeometry x="-220" y="280" width="120" height="40" as="geometry" />
        </mxCell>
        <mxCell id="k0r3qJsODM4JVLYgHPTu-57" value="" style="endArrow=none;html=1;rounded=0;entryX=0.5;entryY=1;entryDx=0;entryDy=0;exitX=1;exitY=0.5;exitDx=0;exitDy=0;" edge="1" parent="1" source="k0r3qJsODM4JVLYgHPTu-55" target="k0r3qJsODM4JVLYgHPTu-6">
          <mxGeometry width="50" height="50" relative="1" as="geometry">
            <mxPoint x="-210" y="60" as="sourcePoint" />
            <mxPoint x="-160" y="10" as="targetPoint" />
          </mxGeometry>
        </mxCell>
        <mxCell id="k0r3qJsODM4JVLYgHPTu-58" value="" style="endArrow=none;html=1;rounded=0;entryX=0.5;entryY=1;entryDx=0;entryDy=0;exitX=0.949;exitY=0.265;exitDx=0;exitDy=0;exitPerimeter=0;" edge="1" parent="1" source="k0r3qJsODM4JVLYgHPTu-56" target="k0r3qJsODM4JVLYgHPTu-6">
          <mxGeometry width="50" height="50" relative="1" as="geometry">
            <mxPoint x="-130" y="-10" as="sourcePoint" />
            <mxPoint x="-80" y="-60" as="targetPoint" />
          </mxGeometry>
        </mxCell>
        <mxCell id="k0r3qJsODM4JVLYgHPTu-59" value="" style="endArrow=classic;html=1;rounded=0;entryX=0;entryY=0.5;entryDx=0;entryDy=0;exitX=1;exitY=0.5;exitDx=0;exitDy=0;" edge="1" parent="1" source="k0r3qJsODM4JVLYgHPTu-1" target="k0r3qJsODM4JVLYgHPTu-2">
          <mxGeometry width="50" height="50" relative="1" as="geometry">
            <mxPoint x="520" y="100" as="sourcePoint" />
            <mxPoint x="570" y="50" as="targetPoint" />
          </mxGeometry>
        </mxCell>
        <mxCell id="k0r3qJsODM4JVLYgHPTu-60" value="" style="endArrow=classic;html=1;rounded=0;exitX=0.5;exitY=0;exitDx=0;exitDy=0;entryX=0.5;entryY=1;entryDx=0;entryDy=0;" edge="1" parent="1" source="k0r3qJsODM4JVLYgHPTu-37" target="k0r3qJsODM4JVLYgHPTu-39">
          <mxGeometry width="50" height="50" relative="1" as="geometry">
            <mxPoint x="450" y="90" as="sourcePoint" />
            <mxPoint x="500" y="40" as="targetPoint" />
          </mxGeometry>
        </mxCell>
      </root>
    </mxGraphModel>
  </diagram>
</mxfile>